<svg xmlns="http://www.w3.org/2000/svg" xmlns:xlink="http://www.w3.org/1999/xlink" width="512" zoomAndPan="magnify" viewBox="0 0 384 383.999986" height="512" preserveAspectRatio="xMidYMid meet" version="1.0"><defs><clipPath id="9ef86c487f"><path d="M 23.738281 0 L 360.488281 0 L 360.488281 384 L 23.738281 384 Z M 23.738281 0 " clip-rule="nonzero"/></clipPath></defs><path fill="#3a6430" d="M 301.074219 128.96875 C 300.390625 127.71875 299.496094 126.480469 297.628906 125.535156 L 270.984375 110.148438 C 270.617188 109.9375 270.222656 109.777344 269.800781 109.667969 C 269.671875 109.636719 269.539062 109.636719 269.394531 109.617188 C 269.117188 109.566406 268.84375 109.519531 268.566406 109.519531 L 268.515625 109.519531 L 268.515625 109.53125 C 267.726562 109.542969 266.949219 109.757812 266.265625 110.148438 L 206.3125 144.769531 L 206.257812 144.664062 L 201.421875 147.464844 C 195.585938 150.828125 188.40625 150.828125 182.570312 147.464844 L 156.359375 132.335938 C 154.910156 131.492188 154.011719 129.933594 154.011719 128.25 C 154.011719 126.566406 154.910156 125.011719 156.359375 124.167969 L 182.570312 109.046875 C 188.40625 105.679688 195.585938 105.679688 201.421875 109.046875 L 207.730469 112.691406 C 209.191406 113.527344 210.976562 113.527344 212.4375 112.691406 L 236.847656 98.601562 C 238.304688 97.757812 239.199219 96.203125 239.199219 94.519531 C 239.199219 92.835938 238.304688 91.28125 236.847656 90.4375 L 201.421875 69.980469 C 195.585938 66.617188 188.40625 66.617188 182.570312 69.980469 L 95.785156 120.089844 C 89.503906 123.71875 89.503906 132.78125 95.785156 136.410156 L 182.570312 186.519531 C 188.40625 189.882812 195.585938 189.882812 201.421875 186.519531 L 268.515625 147.78125 L 268.515625 236.023438 L 246.957031 248.511719 L 201.421875 274.878906 C 199.976562 275.707031 198.4375 276.339844 196.832031 276.773438 C 192.023438 278.046875 186.894531 277.363281 182.570312 274.878906 L 120.183594 238.863281 C 117.265625 237.179688 115.472656 234.0625 115.472656 230.699219 L 115.472656 179.261719 C 115.472656 177.578125 114.570312 176.015625 113.117188 175.1875 L 88.714844 161.082031 C 87.253906 160.242188 85.460938 160.242188 84 161.082031 C 82.542969 161.925781 81.648438 163.488281 81.648438 165.171875 L 81.648438 250.234375 C 81.648438 253.597656 83.445312 256.699219 86.359375 258.394531 L 182.570312 313.949219 C 185.398438 315.578125 188.605469 316.433594 191.863281 316.457031 L 191.929688 316.457031 C 192.390625 316.457031 192.851562 316.40625 193.308594 316.378906 C 193.664062 316.351562 194.019531 316.351562 194.375 316.3125 C 194.863281 316.246094 195.347656 316.128906 195.820312 316.039062 C 196.148438 315.957031 196.480469 315.917969 196.792969 315.839844 C 197.320312 315.707031 197.820312 315.511719 198.320312 315.328125 C 198.609375 315.222656 198.882812 315.15625 199.148438 315.050781 C 199.921875 314.734375 200.683594 314.367188 201.40625 313.949219 L 284.417969 266.019531 L 297.578125 258.554688 C 300.523438 256.882812 302.347656 253.753906 302.347656 250.363281 L 302.347656 133.6875 C 302.347656 132.003906 301.890625 130.382812 301.074219 128.96875 " fill-opacity="1" fill-rule="nonzero"/><g clip-path="url(#9ef86c487f)"><path fill="#4b8c3b" d="M 201.183594 41.800781 C 198.382812 40.1875 195.230469 39.328125 191.996094 39.296875 C 188.777344 39.328125 185.609375 40.191406 182.808594 41.800781 L 66.871094 108.738281 C 61.058594 112.097656 57.476562 118.300781 57.472656 125.015625 L 57.472656 258.898438 C 57.472656 265.617188 61.054688 271.820312 66.871094 275.171875 L 182.808594 342.109375 C 185.648438 343.75 188.855469 344.617188 192.128906 344.632812 C 195.402344 344.617188 198.621094 343.75 201.460938 342.121094 L 316.886719 275.476562 C 322.699219 272.125 326.285156 265.917969 326.285156 259.203125 L 326.285156 220.515625 C 326.273438 218.832031 327.179688 217.28125 328.625 216.441406 L 353.207031 202.257812 C 354.652344 201.414062 356.453125 201.414062 357.902344 202.257812 C 359.359375 203.097656 360.253906 204.648438 360.253906 206.332031 L 360.253906 278.378906 C 360.242188 281.457031 359.476562 284.480469 358.03125 287.1875 C 357.664062 288.960938 355.730469 291.050781 352.996094 293.195312 C 352.945312 293.246094 352.867188 293.300781 352.800781 293.351562 C 345.859375 298.753906 334.371094 304.328125 332.332031 305.511719 L 201.460938 381.070312 C 198.527344 382.753906 195.191406 383.621094 191.8125 383.582031 L 191.667969 383.582031 L 191.667969 383.566406 C 188.550781 383.488281 185.503906 382.621094 182.808594 381.070312 L 33.136719 294.65625 C 27.320312 291.300781 23.738281 285.097656 23.738281 278.378906 L 23.738281 105.546875 C 23.738281 102.53125 24.121094 99.457031 25.445312 96.855469 C 25.628906 96.179688 27.441406 92.859375 31.175781 90.128906 C 32.585938 89.179688 35.078125 87.90625 37.410156 86.554688 L 182.386719 2.855469 C 185.304688 1.171875 188.632812 0.308594 191.996094 0.347656 C 195.375 0.308594 198.6875 1.171875 201.605469 2.855469 L 335.382812 80.082031 C 335.6875 80.269531 335.921875 80.492188 336.1875 80.703125 L 337.882812 81.671875 C 342.429688 84.085938 349.554688 87.757812 353.417969 90.695312 L 353.734375 90.933594 C 353.789062 90.972656 353.839844 91.011719 353.894531 91.046875 C 354.023438 91.160156 354.117188 91.273438 354.246094 91.390625 C 355.667969 92.578125 356.875 93.972656 357.808594 95.53125 C 357.835938 95.550781 357.847656 95.578125 357.875 95.601562 L 357.863281 95.605469 C 359.425781 98.21875 360.253906 101.203125 360.253906 104.242188 L 360.253906 167.527344 C 360.253906 169.210938 359.359375 170.761719 357.902344 171.601562 L 333.320312 185.796875 C 331.875 186.625 330.074219 186.625 328.628906 185.796875 C 327.167969 184.957031 326.273438 183.40625 326.273438 181.722656 L 326.273438 124.652344 C 326.273438 117.929688 322.6875 111.71875 316.863281 108.363281 L 201.1875 41.800781 L 201.1875 41.804688 Z M 201.183594 41.800781 " fill-opacity="1" fill-rule="nonzero"/></g></svg>